<svg width="14" height="16" fill="none" xmlns="http://www.w3.org/2000/svg"><path fill-rule="evenodd" clip-rule="evenodd" d="M3.825 1.267C3.825.567 4.363 0 5.027 0h4.679c.663 0 1.201.567 1.201 1.267V2.4h2.34c.384 0 .695.328.695.733 0 .405-.311.734-.695.734h-.506c.041.148.063.304.063.466v10c0 .92-.707 1.667-1.58 1.667H3.635c-.873 0-1.581-.746-1.581-1.667v-10c0-.162.022-.318.063-.466h-.632c-.384 0-.696-.329-.696-.734 0-.405.312-.733.696-.733h2.34V1.267zM5.216 2.4h4.3v-.933h-4.3V2.4zm-1.58 1.733c-.105 0-.19.09-.19.2v10c0 .11.085.2.19.2h7.587c.105 0 .19-.09.19-.2v-10c0-.11-.085-.2-.19-.2H3.636zm1.39 1.6c.385 0 .696.329.696.734v6.001c0 .405-.311.733-.695.733-.384 0-.696-.328-.696-.733V6.467c0-.405.312-.734.696-.734zm2.404 0c.384 0 .695.329.695.734v6.001c0 .405-.311.733-.695.733-.385 0-.696-.328-.696-.733V6.467c0-.405.311-.734.696-.734zm2.402 0c.384 0 .696.329.696.734v6.001c0 .405-.312.733-.696.733-.384 0-.695-.328-.695-.733V6.467c0-.405.311-.734.695-.734z" fill="#B93857"/></svg>